# xmcd
#
# Track frame offsets: 
#        150
#        15019
#        35429
#        55783
#        80930
#        108529
#        129784
#        145123
#        165017
#        181818
#
# Disc length: 2661 seconds
#
# Revision: 0
# Processed by: cddbd v1.5.2PL0 Copyright (c) Steve Scherf et al.
# Submitted via: ExactAudioCopy v1.0b4
#
DISCID=6c0a630a
DTITLE=Louisiana Red - Live and Well (LP)
DYEAR=1977
DGENRE=Blues
TTITLE0=Louisiana Boogie
TTITLE1=When My Mama Was Livin'
TTITLE2=Ethel Mae
TTITLE3=God Sad News
TTITLE4=Stop Doggin' Me Around
TTITLE5=I'm Crazy 'bout You
TTITLE6=Churchbell
TTITLE7=Shugar Hips
TTITLE8=East Berlin Travel
TTITLE9=Girl In Birmingham
EXTD=
EXTT0=
EXTT1=
EXTT2=
EXTT3=
EXTT4=
EXTT5=
EXTT6=
EXTT7=
EXTT8=
EXTT9=
PLAYORDER=
